<?xml version="1.0" standalone="no"?>
<!DOCTYPE svg PUBLIC "-//W3C//DTD SVG 20010904//EN"
 "http://www.w3.org/TR/2001/REC-SVG-20010904/DTD/svg10.dtd">
<svg version="1.0" xmlns="http://www.w3.org/2000/svg"
 width="2363.000000pt" height="2363.000000pt" viewBox="0 0 2363.000000 2363.000000"
 preserveAspectRatio="xMidYMid meet">
<metadata>
Created by potrace 1.14, written by Peter Selinger 2001-2017
</metadata>
<g transform="translate(0.000000,2363.000000) scale(0.100000,-0.100000)"
fill="#000000" stroke="none">
<path d="M11597 17724 c-1 -2 -56 -5 -122 -8 -66 -3 -140 -8 -165 -10 -25 -3
-74 -8 -110 -11 -145 -14 -391 -51 -560 -86 -662 -135 -1223 -350 -1840 -706
-208 -120 -547 -359 -760 -537 -336 -280 -689 -648 -919 -956 -31 -41 -58 -77
-61 -80 -11 -10 -147 -206 -201 -290 -354 -544 -620 -1150 -773 -1765 -46
-185 -72 -306 -95 -445 -20 -116 -24 -143 -36 -235 -4 -27 -8 -60 -10 -73 -2
-13 -7 -53 -10 -90 -4 -37 -8 -85 -10 -107 -24 -233 -24 -756 -1 -1000 3 -27
8 -79 11 -115 3 -36 8 -76 10 -90 2 -14 6 -47 10 -75 130 -1041 573 -2081
1239 -2910 252 -314 575 -642 857 -872 48 -38 93 -75 100 -82 46 -41 268 -200
414 -296 438 -289 913 -518 1405 -680 96 -31 182 -58 191 -60 9 -2 47 -12 85
-23 38 -11 85 -24 104 -28 19 -4 40 -9 45 -10 52 -13 278 -64 305 -68 41 -7
75 -13 145 -26 28 -5 68 -11 90 -14 22 -3 58 -7 80 -10 182 -25 252 -32 440
-43 233 -14 791 -6 886 12 11 2 52 7 92 10 39 3 99 10 132 15 33 5 80 12 105
15 25 3 56 8 70 10 14 3 41 7 60 10 19 3 58 10 85 15 28 5 61 12 75 14 14 3
36 7 50 10 14 3 50 11 80 17 30 6 60 12 65 14 6 1 30 7 55 14 25 7 53 15 64
17 169 32 627 188 886 301 196 86 573 276 600 303 3 3 25 16 50 29 25 13 58
34 75 45 16 12 45 29 64 40 116 62 457 311 671 490 134 112 467 434 587 568
270 300 529 660 738 1023 65 112 228 435 270 535 15 36 36 84 46 106 28 65 84
209 122 319 31 86 46 131 93 285 5 14 9 28 10 33 1 4 2 8 4 10 1 1 3 9 5 17 1
8 21 85 43 170 38 146 105 481 117 580 3 25 7 59 10 75 10 65 15 110 21 174 3
36 7 76 9 88 18 106 26 722 12 908 -16 206 -27 309 -48 465 -18 130 -68 398
-94 500 -8 30 -16 66 -19 80 -3 14 -12 52 -21 85 -9 33 -18 67 -20 75 -21 92
-137 434 -205 604 -94 236 -256 576 -341 716 -9 14 -46 77 -84 140 -127 213
-237 372 -432 626 -109 142 -259 309 -438 489 -231 232 -378 362 -605 535 -46
36 -91 71 -98 78 -7 6 -17 12 -21 12 -4 0 -16 8 -27 18 -22 20 -290 202 -298
202 -3 0 -24 13 -48 29 -117 79 -407 235 -608 329 -306 142 -737 296 -1027
367 -94 23 -373 82 -423 89 -14 2 -52 9 -85 15 -33 5 -80 13 -105 16 -25 3
-56 8 -70 10 -80 13 -273 31 -435 41 -102 5 -554 12 -558 8z"/>
</g>
</svg>
