<?xml version="1.0" standalone="no"?>
<!DOCTYPE svg PUBLIC "-//W3C//DTD SVG 20010904//EN"
 "http://www.w3.org/TR/2001/REC-SVG-20010904/DTD/svg10.dtd">
<svg version="1.0" xmlns="http://www.w3.org/2000/svg"
 width="2363.000000pt" height="2363.000000pt" viewBox="0 0 2363.000000 2363.000000"
 preserveAspectRatio="xMidYMid meet">
<metadata>
Created by potrace 1.14, written by Peter Selinger 2001-2017
</metadata>
<g transform="translate(0.000000,2363.000000) scale(0.100000,-0.100000)"
fill="#000000" stroke="none">
<path d="M11617 23624 c-1 -1 -96 -5 -212 -8 -115 -4 -230 -9 -255 -11 -25 -2
-92 -6 -150 -10 -58 -4 -121 -8 -140 -10 -19 -2 -71 -6 -115 -10 -44 -4 -91
-8 -105 -10 -14 -1 -61 -5 -105 -9 -44 -4 -87 -9 -95 -11 -8 -2 -42 -7 -75
-10 -33 -4 -69 -8 -80 -10 -11 -1 -45 -5 -75 -9 -48 -6 -126 -18 -210 -31 -41
-6 -273 -45 -300 -51 -14 -2 -40 -7 -59 -10 -18 -3 -43 -8 -55 -10 -11 -2 -34
-7 -51 -10 -16 -3 -82 -16 -145 -30 -63 -14 -122 -27 -131 -29 -150 -32 -233
-51 -379 -90 -96 -25 -182 -47 -190 -49 -314 -80 -1052 -330 -1308 -442 -20
-9 -46 -19 -57 -24 -11 -4 -31 -12 -45 -18 -14 -6 -88 -38 -166 -71 -316 -134
-913 -432 -1124 -561 -8 -5 -71 -41 -140 -81 -447 -258 -929 -588 -1370 -937
-117 -93 -428 -352 -476 -397 -6 -5 -51 -46 -99 -90 -183 -166 -234 -215 -430
-410 -205 -205 -277 -280 -425 -444 -47 -52 -90 -99 -95 -105 -151 -160 -607
-735 -766 -965 -24 -35 -63 -91 -87 -125 -55 -78 -233 -345 -248 -371 -6 -11
-51 -83 -99 -160 -556 -883 -1041 -1996 -1330 -3050 -48 -173 -149 -587 -159
-647 -3 -18 -15 -78 -27 -133 -11 -55 -23 -111 -25 -125 -46 -248 -57 -308
-69 -401 -3 -19 -7 -45 -10 -59 -5 -22 -26 -179 -41 -300 -3 -25 -7 -56 -10
-70 -2 -14 -6 -54 -10 -90 -3 -36 -7 -76 -9 -90 -2 -14 -6 -59 -10 -100 -3
-41 -8 -91 -10 -110 -8 -77 -19 -241 -31 -480 -15 -288 -8 -1023 11 -1290 2
-30 7 -95 10 -143 3 -49 7 -105 9 -125 6 -54 15 -137 21 -212 3 -36 8 -82 10
-102 46 -371 64 -493 130 -863 3 -16 10 -52 16 -80 6 -27 13 -63 16 -80 19
-118 166 -727 208 -865 8 -25 39 -128 70 -230 276 -915 679 -1817 1188 -2660
145 -239 518 -798 584 -875 5 -5 35 -46 68 -90 56 -77 249 -324 292 -375 12
-14 47 -56 79 -95 56 -68 224 -265 234 -275 3 -3 46 -50 95 -104 254 -281 620
-646 870 -867 27 -24 68 -60 90 -80 22 -20 103 -90 180 -154 77 -64 151 -127
165 -139 87 -75 568 -439 670 -506 12 -8 32 -22 44 -31 84 -64 470 -314 624
-406 35 -21 76 -45 90 -54 390 -237 943 -516 1457 -734 320 -136 750 -292
1110 -402 155 -47 531 -151 575 -159 14 -3 39 -9 55 -14 23 -7 205 -49 325
-75 8 -2 35 -8 60 -14 25 -5 59 -12 75 -15 17 -3 39 -8 50 -10 11 -2 58 -11
105 -20 47 -9 95 -18 106 -20 12 -2 39 -7 60 -10 22 -4 65 -11 96 -16 95 -17
109 -19 157 -26 25 -4 55 -8 66 -10 11 -3 40 -6 65 -9 25 -3 54 -7 65 -9 11
-2 49 -7 85 -11 36 -4 74 -9 85 -11 11 -2 40 -6 65 -8 25 -3 65 -7 90 -10 25
-3 77 -8 115 -11 39 -4 88 -8 110 -10 60 -6 192 -16 260 -20 33 -2 114 -7 180
-12 244 -16 1180 -8 1405 12 19 2 80 6 135 10 55 3 111 8 125 10 14 2 61 7
105 11 44 3 94 8 110 10 17 2 53 6 80 8 55 6 150 18 245 32 35 5 204 30 270
39 59 9 172 29 230 40 13 3 42 7 64 11 34 5 385 77 441 90 11 3 31 7 45 10 14
3 33 7 42 10 10 3 30 8 45 10 120 22 646 170 923 259 344 112 823 295 1078
411 29 13 54 24 56 24 5 0 142 64 273 126 243 116 480 238 657 338 54 31 100
56 102 56 5 0 369 216 429 255 343 219 834 561 921 640 7 5 24 19 40 30 44 32
288 229 409 331 121 102 132 111 242 211 42 37 85 76 97 86 45 39 304 287 395
378 194 195 390 405 541 579 41 47 77 87 80 90 23 21 317 385 411 510 35 47
66 87 70 90 11 10 258 358 330 465 381 565 726 1182 989 1769 17 39 37 84 45
100 42 92 148 349 190 461 12 33 37 98 55 145 68 180 211 598 240 705 4 17 26
93 48 170 38 130 79 280 87 315 1 8 8 35 15 60 7 25 14 52 15 60 3 13 61 260
70 300 9 35 57 277 60 296 2 11 8 45 14 75 17 86 49 275 66 394 9 61 18 121
20 135 5 31 12 89 20 159 4 30 8 62 10 72 2 10 6 53 10 96 3 43 7 85 10 93 2
8 7 51 10 95 3 44 8 96 10 115 3 31 12 159 20 280 24 379 24 1197 0 1447 -2
24 -7 89 -10 145 -3 57 -8 114 -10 128 -2 14 -7 63 -10 110 -4 46 -9 96 -10
110 -2 14 -6 54 -10 90 -3 36 -8 76 -10 90 -2 14 -6 50 -10 80 -4 30 -8 66
-10 80 -2 14 -7 45 -10 70 -3 25 -8 56 -10 70 -3 14 -9 57 -15 95 -5 39 -12
81 -15 95 -2 14 -6 42 -9 62 -2 20 -9 61 -15 90 -5 29 -13 69 -15 88 -3 19 -8
44 -10 55 -2 11 -16 81 -31 155 -22 112 -42 203 -110 490 -15 66 -62 244 -86
330 -17 58 -32 115 -35 128 -2 13 -11 42 -18 65 -23 68 -99 311 -102 322 -6
28 -165 479 -183 520 -5 11 -28 70 -52 130 -69 178 -173 423 -251 592 -105
229 -367 749 -397 787 -4 6 -26 45 -48 86 -140 261 -457 757 -692 1084 -75
103 -145 201 -156 216 -30 42 -216 282 -236 305 -10 11 -42 49 -71 85 -29 36
-55 67 -58 70 -3 3 -27 32 -55 65 -50 61 -256 297 -284 326 -9 9 -63 67 -121
130 -212 229 -613 619 -825 802 -16 14 -43 38 -60 52 -47 42 -405 336 -455
375 -25 19 -47 37 -50 40 -11 12 -284 213 -416 307 -199 141 -499 339 -689
454 -49 30 -99 59 -110 66 -11 7 -27 15 -35 19 -8 4 -26 15 -40 24 -14 10 -50
31 -80 48 -517 284 -755 404 -1133 568 -84 36 -165 72 -182 79 -49 22 -402
160 -505 198 -344 127 -1002 326 -1230 372 -8 2 -35 8 -59 15 -44 11 -195 47
-241 56 -14 2 -50 10 -80 16 -30 6 -59 12 -65 14 -5 1 -35 6 -65 13 -30 6 -71
13 -90 16 -19 3 -42 8 -50 10 -8 3 -32 7 -53 9 -21 3 -41 7 -45 9 -4 3 -29 7
-57 11 -27 3 -61 8 -75 11 -14 3 -38 7 -55 9 -16 2 -57 9 -90 14 -33 6 -80 13
-105 17 -247 32 -314 40 -415 50 -33 4 -71 8 -85 10 -24 4 -119 12 -225 20
-27 2 -86 6 -130 9 -130 10 -239 16 -436 22 -171 6 -588 11 -592 8z"/>
</g>
</svg>
